<?xml version="1.0" encoding="utf-8" standalone="no"?>
<!DOCTYPE svg PUBLIC "-//W3C//DTD SVG 1.1//EN"
  "http://www.w3.org/Graphics/SVG/1.1/DTD/svg11.dtd">
<!-- Created with matplotlib (http://matplotlib.org/) -->
<svg height="328pt" version="1.1" viewBox="0 0 429 328" width="429pt" xmlns="http://www.w3.org/2000/svg" xmlns:xlink="http://www.w3.org/1999/xlink">
 <defs>
  <style type="text/css">
*{stroke-linecap:butt;stroke-linejoin:round;}
  </style>
 </defs>
 <g id="figure_1">
  <g id="patch_1">
   <path d="M 0 328.885437 
L 429.230937 328.885437 
L 429.230937 0 
L 0 0 
z
" style="fill:none;"/>
  </g>
  <g id="axes_1">
   <g id="patch_2">
    <path d="M 61.410938 276.812 
L 418.530938 276.812 
L 418.530938 10.7 
L 61.410938 10.7 
z
" style="fill:none;"/>
   </g>
   <g id="matplotlib.axis_1">
    <g id="xtick_1">
     <g id="line2d_1">
      <path clip-path="url(#p24f9178942)" d="M 77.643665 276.812 
L 77.643665 10.7 
" style="fill:none;stroke:#b0b0b0;stroke-linecap:square;stroke-width:0.8;"/>
     </g>
     <g id="line2d_2">
      <defs>
       <path d="M 0 0 
L 0 3.5 
" id="mc72ddcf459" style="stroke:#000000;stroke-width:0.8;"/>
      </defs>
      <g>
       <use style="stroke:#000000;stroke-width:0.8;" x="77.643665" xlink:href="#mc72ddcf459" y="276.812"/>
      </g>
     </g>
     <g id="text_1">
      <!-- $\mathdefault{10^{0}}$ -->
      <defs>
       <path d="M 12.40625 8.296875 
L 28.515625 8.296875 
L 28.515625 63.921875 
L 10.984375 60.40625 
L 10.984375 69.390625 
L 28.421875 72.90625 
L 38.28125 72.90625 
L 38.28125 8.296875 
L 54.390625 8.296875 
L 54.390625 0 
L 12.40625 0 
z
" id="DejaVuSans-31"/>
       <path d="M 31.78125 66.40625 
Q 24.171875 66.40625 20.328125 58.90625 
Q 16.5 51.421875 16.5 36.375 
Q 16.5 21.390625 20.328125 13.890625 
Q 24.171875 6.390625 31.78125 6.390625 
Q 39.453125 6.390625 43.28125 13.890625 
Q 47.125 21.390625 47.125 36.375 
Q 47.125 51.421875 43.28125 58.90625 
Q 39.453125 66.40625 31.78125 66.40625 
z
M 31.78125 74.21875 
Q 44.046875 74.21875 50.515625 64.515625 
Q 56.984375 54.828125 56.984375 36.375 
Q 56.984375 17.96875 50.515625 8.265625 
Q 44.046875 -1.421875 31.78125 -1.421875 
Q 19.53125 -1.421875 13.0625 8.265625 
Q 6.59375 17.96875 6.59375 36.375 
Q 6.59375 54.828125 13.0625 64.515625 
Q 19.53125 74.21875 31.78125 74.21875 
z
" id="DejaVuSans-30"/>
      </defs>
      <g transform="translate(64.443665 295.209656)scale(0.15 -0.15)">
       <use transform="translate(0 0.765625)" xlink:href="#DejaVuSans-31"/>
       <use transform="translate(63.623047 0.765625)" xlink:href="#DejaVuSans-30"/>
       <use transform="translate(128.203125 39.046875)scale(0.7)" xlink:href="#DejaVuSans-30"/>
      </g>
     </g>
    </g>
    <g id="xtick_2">
     <g id="line2d_3">
      <path clip-path="url(#p24f9178942)" d="M 131.567618 276.812 
L 131.567618 10.7 
" style="fill:none;stroke:#b0b0b0;stroke-linecap:square;stroke-width:0.8;"/>
     </g>
     <g id="line2d_4">
      <g>
       <use style="stroke:#000000;stroke-width:0.8;" x="131.567618" xlink:href="#mc72ddcf459" y="276.812"/>
      </g>
     </g>
     <g id="text_2">
      <!-- $\mathdefault{10^{1}}$ -->
      <g transform="translate(118.367618 295.209656)scale(0.15 -0.15)">
       <use transform="translate(0 0.684375)" xlink:href="#DejaVuSans-31"/>
       <use transform="translate(63.623047 0.684375)" xlink:href="#DejaVuSans-30"/>
       <use transform="translate(128.203125 38.965625)scale(0.7)" xlink:href="#DejaVuSans-31"/>
      </g>
     </g>
    </g>
    <g id="xtick_3">
     <g id="line2d_5">
      <path clip-path="url(#p24f9178942)" d="M 185.49157 276.812 
L 185.49157 10.7 
" style="fill:none;stroke:#b0b0b0;stroke-linecap:square;stroke-width:0.8;"/>
     </g>
     <g id="line2d_6">
      <g>
       <use style="stroke:#000000;stroke-width:0.8;" x="185.49157" xlink:href="#mc72ddcf459" y="276.812"/>
      </g>
     </g>
     <g id="text_3">
      <!-- $\mathdefault{10^{2}}$ -->
      <defs>
       <path d="M 19.1875 8.296875 
L 53.609375 8.296875 
L 53.609375 0 
L 7.328125 0 
L 7.328125 8.296875 
Q 12.9375 14.109375 22.625 23.890625 
Q 32.328125 33.6875 34.8125 36.53125 
Q 39.546875 41.84375 41.421875 45.53125 
Q 43.3125 49.21875 43.3125 52.78125 
Q 43.3125 58.59375 39.234375 62.25 
Q 35.15625 65.921875 28.609375 65.921875 
Q 23.96875 65.921875 18.8125 64.3125 
Q 13.671875 62.703125 7.8125 59.421875 
L 7.8125 69.390625 
Q 13.765625 71.78125 18.9375 73 
Q 24.125 74.21875 28.421875 74.21875 
Q 39.75 74.21875 46.484375 68.546875 
Q 53.21875 62.890625 53.21875 53.421875 
Q 53.21875 48.921875 51.53125 44.890625 
Q 49.859375 40.875 45.40625 35.40625 
Q 44.1875 33.984375 37.640625 27.21875 
Q 31.109375 20.453125 19.1875 8.296875 
z
" id="DejaVuSans-32"/>
      </defs>
      <g transform="translate(172.29157 295.209656)scale(0.15 -0.15)">
       <use transform="translate(0 0.765625)" xlink:href="#DejaVuSans-31"/>
       <use transform="translate(63.623047 0.765625)" xlink:href="#DejaVuSans-30"/>
       <use transform="translate(128.203125 39.046875)scale(0.7)" xlink:href="#DejaVuSans-32"/>
      </g>
     </g>
    </g>
    <g id="xtick_4">
     <g id="line2d_7">
      <path clip-path="url(#p24f9178942)" d="M 239.415523 276.812 
L 239.415523 10.7 
" style="fill:none;stroke:#b0b0b0;stroke-linecap:square;stroke-width:0.8;"/>
     </g>
     <g id="line2d_8">
      <g>
       <use style="stroke:#000000;stroke-width:0.8;" x="239.415523" xlink:href="#mc72ddcf459" y="276.812"/>
      </g>
     </g>
     <g id="text_4">
      <!-- $\mathdefault{10^{3}}$ -->
      <defs>
       <path d="M 40.578125 39.3125 
Q 47.65625 37.796875 51.625 33 
Q 55.609375 28.21875 55.609375 21.1875 
Q 55.609375 10.40625 48.1875 4.484375 
Q 40.765625 -1.421875 27.09375 -1.421875 
Q 22.515625 -1.421875 17.65625 -0.515625 
Q 12.796875 0.390625 7.625 2.203125 
L 7.625 11.71875 
Q 11.71875 9.328125 16.59375 8.109375 
Q 21.484375 6.890625 26.8125 6.890625 
Q 36.078125 6.890625 40.9375 10.546875 
Q 45.796875 14.203125 45.796875 21.1875 
Q 45.796875 27.640625 41.28125 31.265625 
Q 36.765625 34.90625 28.71875 34.90625 
L 20.21875 34.90625 
L 20.21875 43.015625 
L 29.109375 43.015625 
Q 36.375 43.015625 40.234375 45.921875 
Q 44.09375 48.828125 44.09375 54.296875 
Q 44.09375 59.90625 40.109375 62.90625 
Q 36.140625 65.921875 28.71875 65.921875 
Q 24.65625 65.921875 20.015625 65.03125 
Q 15.375 64.15625 9.8125 62.3125 
L 9.8125 71.09375 
Q 15.4375 72.65625 20.34375 73.4375 
Q 25.25 74.21875 29.59375 74.21875 
Q 40.828125 74.21875 47.359375 69.109375 
Q 53.90625 64.015625 53.90625 55.328125 
Q 53.90625 49.265625 50.4375 45.09375 
Q 46.96875 40.921875 40.578125 39.3125 
z
" id="DejaVuSans-33"/>
      </defs>
      <g transform="translate(226.215523 295.209656)scale(0.15 -0.15)">
       <use transform="translate(0 0.765625)" xlink:href="#DejaVuSans-31"/>
       <use transform="translate(63.623047 0.765625)" xlink:href="#DejaVuSans-30"/>
       <use transform="translate(128.203125 39.046875)scale(0.7)" xlink:href="#DejaVuSans-33"/>
      </g>
     </g>
    </g>
    <g id="xtick_5">
     <g id="line2d_9">
      <path clip-path="url(#p24f9178942)" d="M 293.339476 276.812 
L 293.339476 10.7 
" style="fill:none;stroke:#b0b0b0;stroke-linecap:square;stroke-width:0.8;"/>
     </g>
     <g id="line2d_10">
      <g>
       <use style="stroke:#000000;stroke-width:0.8;" x="293.339476" xlink:href="#mc72ddcf459" y="276.812"/>
      </g>
     </g>
     <g id="text_5">
      <!-- $\mathdefault{10^{4}}$ -->
      <defs>
       <path d="M 37.796875 64.3125 
L 12.890625 25.390625 
L 37.796875 25.390625 
z
M 35.203125 72.90625 
L 47.609375 72.90625 
L 47.609375 25.390625 
L 58.015625 25.390625 
L 58.015625 17.1875 
L 47.609375 17.1875 
L 47.609375 0 
L 37.796875 0 
L 37.796875 17.1875 
L 4.890625 17.1875 
L 4.890625 26.703125 
z
" id="DejaVuSans-34"/>
      </defs>
      <g transform="translate(280.139476 295.209656)scale(0.15 -0.15)">
       <use transform="translate(0 0.684375)" xlink:href="#DejaVuSans-31"/>
       <use transform="translate(63.623047 0.684375)" xlink:href="#DejaVuSans-30"/>
       <use transform="translate(128.203125 38.965625)scale(0.7)" xlink:href="#DejaVuSans-34"/>
      </g>
     </g>
    </g>
    <g id="xtick_6">
     <g id="line2d_11">
      <path clip-path="url(#p24f9178942)" d="M 347.263429 276.812 
L 347.263429 10.7 
" style="fill:none;stroke:#b0b0b0;stroke-linecap:square;stroke-width:0.8;"/>
     </g>
     <g id="line2d_12">
      <g>
       <use style="stroke:#000000;stroke-width:0.8;" x="347.263429" xlink:href="#mc72ddcf459" y="276.812"/>
      </g>
     </g>
     <g id="text_6">
      <!-- $\mathdefault{10^{5}}$ -->
      <defs>
       <path d="M 10.796875 72.90625 
L 49.515625 72.90625 
L 49.515625 64.59375 
L 19.828125 64.59375 
L 19.828125 46.734375 
Q 21.96875 47.46875 24.109375 47.828125 
Q 26.265625 48.1875 28.421875 48.1875 
Q 40.625 48.1875 47.75 41.5 
Q 54.890625 34.8125 54.890625 23.390625 
Q 54.890625 11.625 47.5625 5.09375 
Q 40.234375 -1.421875 26.90625 -1.421875 
Q 22.3125 -1.421875 17.546875 -0.640625 
Q 12.796875 0.140625 7.71875 1.703125 
L 7.71875 11.625 
Q 12.109375 9.234375 16.796875 8.0625 
Q 21.484375 6.890625 26.703125 6.890625 
Q 35.15625 6.890625 40.078125 11.328125 
Q 45.015625 15.765625 45.015625 23.390625 
Q 45.015625 31 40.078125 35.4375 
Q 35.15625 39.890625 26.703125 39.890625 
Q 22.75 39.890625 18.8125 39.015625 
Q 14.890625 38.140625 10.796875 36.28125 
z
" id="DejaVuSans-35"/>
      </defs>
      <g transform="translate(334.063429 295.209656)scale(0.15 -0.15)">
       <use transform="translate(0 0.684375)" xlink:href="#DejaVuSans-31"/>
       <use transform="translate(63.623047 0.684375)" xlink:href="#DejaVuSans-30"/>
       <use transform="translate(128.203125 38.965625)scale(0.7)" xlink:href="#DejaVuSans-35"/>
      </g>
     </g>
    </g>
    <g id="xtick_7">
     <g id="line2d_13">
      <path clip-path="url(#p24f9178942)" d="M 401.187381 276.812 
L 401.187381 10.7 
" style="fill:none;stroke:#b0b0b0;stroke-linecap:square;stroke-width:0.8;"/>
     </g>
     <g id="line2d_14">
      <g>
       <use style="stroke:#000000;stroke-width:0.8;" x="401.187381" xlink:href="#mc72ddcf459" y="276.812"/>
      </g>
     </g>
     <g id="text_7">
      <!-- $\mathdefault{10^{6}}$ -->
      <defs>
       <path d="M 33.015625 40.375 
Q 26.375 40.375 22.484375 35.828125 
Q 18.609375 31.296875 18.609375 23.390625 
Q 18.609375 15.53125 22.484375 10.953125 
Q 26.375 6.390625 33.015625 6.390625 
Q 39.65625 6.390625 43.53125 10.953125 
Q 47.40625 15.53125 47.40625 23.390625 
Q 47.40625 31.296875 43.53125 35.828125 
Q 39.65625 40.375 33.015625 40.375 
z
M 52.59375 71.296875 
L 52.59375 62.3125 
Q 48.875 64.0625 45.09375 64.984375 
Q 41.3125 65.921875 37.59375 65.921875 
Q 27.828125 65.921875 22.671875 59.328125 
Q 17.53125 52.734375 16.796875 39.40625 
Q 19.671875 43.65625 24.015625 45.921875 
Q 28.375 48.1875 33.59375 48.1875 
Q 44.578125 48.1875 50.953125 41.515625 
Q 57.328125 34.859375 57.328125 23.390625 
Q 57.328125 12.15625 50.6875 5.359375 
Q 44.046875 -1.421875 33.015625 -1.421875 
Q 20.359375 -1.421875 13.671875 8.265625 
Q 6.984375 17.96875 6.984375 36.375 
Q 6.984375 53.65625 15.1875 63.9375 
Q 23.390625 74.21875 37.203125 74.21875 
Q 40.921875 74.21875 44.703125 73.484375 
Q 48.484375 72.75 52.59375 71.296875 
z
" id="DejaVuSans-36"/>
      </defs>
      <g transform="translate(387.987381 295.209656)scale(0.15 -0.15)">
       <use transform="translate(0 0.765625)" xlink:href="#DejaVuSans-31"/>
       <use transform="translate(63.623047 0.765625)" xlink:href="#DejaVuSans-30"/>
       <use transform="translate(128.203125 39.046875)scale(0.7)" xlink:href="#DejaVuSans-36"/>
      </g>
     </g>
    </g>
    <g id="xtick_8">
     <g id="line2d_15">
      <defs>
       <path d="M 0 0 
L 0 2 
" id="mde8bb5b3f6" style="stroke:#000000;stroke-width:0.6;"/>
      </defs>
      <g>
       <use style="stroke:#000000;stroke-width:0.6;" x="61.410938" xlink:href="#mde8bb5b3f6" y="276.812"/>
      </g>
     </g>
    </g>
    <g id="xtick_9">
     <g id="line2d_16">
      <g>
       <use style="stroke:#000000;stroke-width:0.6;" x="65.680703" xlink:href="#mde8bb5b3f6" y="276.812"/>
      </g>
     </g>
    </g>
    <g id="xtick_10">
     <g id="line2d_17">
      <g>
       <use style="stroke:#000000;stroke-width:0.6;" x="69.290739" xlink:href="#mde8bb5b3f6" y="276.812"/>
      </g>
     </g>
    </g>
    <g id="xtick_11">
     <g id="line2d_18">
      <g>
       <use style="stroke:#000000;stroke-width:0.6;" x="72.417894" xlink:href="#mde8bb5b3f6" y="276.812"/>
      </g>
     </g>
    </g>
    <g id="xtick_12">
     <g id="line2d_19">
      <g>
       <use style="stroke:#000000;stroke-width:0.6;" x="75.17624" xlink:href="#mde8bb5b3f6" y="276.812"/>
      </g>
     </g>
    </g>
    <g id="xtick_13">
     <g id="line2d_20">
      <g>
       <use style="stroke:#000000;stroke-width:0.6;" x="93.876392" xlink:href="#mde8bb5b3f6" y="276.812"/>
      </g>
     </g>
    </g>
    <g id="xtick_14">
     <g id="line2d_21">
      <g>
       <use style="stroke:#000000;stroke-width:0.6;" x="103.371929" xlink:href="#mde8bb5b3f6" y="276.812"/>
      </g>
     </g>
    </g>
    <g id="xtick_15">
     <g id="line2d_22">
      <g>
       <use style="stroke:#000000;stroke-width:0.6;" x="110.109119" xlink:href="#mde8bb5b3f6" y="276.812"/>
      </g>
     </g>
    </g>
    <g id="xtick_16">
     <g id="line2d_23">
      <g>
       <use style="stroke:#000000;stroke-width:0.6;" x="115.33489" xlink:href="#mde8bb5b3f6" y="276.812"/>
      </g>
     </g>
    </g>
    <g id="xtick_17">
     <g id="line2d_24">
      <g>
       <use style="stroke:#000000;stroke-width:0.6;" x="119.604656" xlink:href="#mde8bb5b3f6" y="276.812"/>
      </g>
     </g>
    </g>
    <g id="xtick_18">
     <g id="line2d_25">
      <g>
       <use style="stroke:#000000;stroke-width:0.6;" x="123.214692" xlink:href="#mde8bb5b3f6" y="276.812"/>
      </g>
     </g>
    </g>
    <g id="xtick_19">
     <g id="line2d_26">
      <g>
       <use style="stroke:#000000;stroke-width:0.6;" x="126.341847" xlink:href="#mde8bb5b3f6" y="276.812"/>
      </g>
     </g>
    </g>
    <g id="xtick_20">
     <g id="line2d_27">
      <g>
       <use style="stroke:#000000;stroke-width:0.6;" x="129.100193" xlink:href="#mde8bb5b3f6" y="276.812"/>
      </g>
     </g>
    </g>
    <g id="xtick_21">
     <g id="line2d_28">
      <g>
       <use style="stroke:#000000;stroke-width:0.6;" x="147.800345" xlink:href="#mde8bb5b3f6" y="276.812"/>
      </g>
     </g>
    </g>
    <g id="xtick_22">
     <g id="line2d_29">
      <g>
       <use style="stroke:#000000;stroke-width:0.6;" x="157.295882" xlink:href="#mde8bb5b3f6" y="276.812"/>
      </g>
     </g>
    </g>
    <g id="xtick_23">
     <g id="line2d_30">
      <g>
       <use style="stroke:#000000;stroke-width:0.6;" x="164.033072" xlink:href="#mde8bb5b3f6" y="276.812"/>
      </g>
     </g>
    </g>
    <g id="xtick_24">
     <g id="line2d_31">
      <g>
       <use style="stroke:#000000;stroke-width:0.6;" x="169.258843" xlink:href="#mde8bb5b3f6" y="276.812"/>
      </g>
     </g>
    </g>
    <g id="xtick_25">
     <g id="line2d_32">
      <g>
       <use style="stroke:#000000;stroke-width:0.6;" x="173.528609" xlink:href="#mde8bb5b3f6" y="276.812"/>
      </g>
     </g>
    </g>
    <g id="xtick_26">
     <g id="line2d_33">
      <g>
       <use style="stroke:#000000;stroke-width:0.6;" x="177.138644" xlink:href="#mde8bb5b3f6" y="276.812"/>
      </g>
     </g>
    </g>
    <g id="xtick_27">
     <g id="line2d_34">
      <g>
       <use style="stroke:#000000;stroke-width:0.6;" x="180.265799" xlink:href="#mde8bb5b3f6" y="276.812"/>
      </g>
     </g>
    </g>
    <g id="xtick_28">
     <g id="line2d_35">
      <g>
       <use style="stroke:#000000;stroke-width:0.6;" x="183.024146" xlink:href="#mde8bb5b3f6" y="276.812"/>
      </g>
     </g>
    </g>
    <g id="xtick_29">
     <g id="line2d_36">
      <g>
       <use style="stroke:#000000;stroke-width:0.6;" x="201.724298" xlink:href="#mde8bb5b3f6" y="276.812"/>
      </g>
     </g>
    </g>
    <g id="xtick_30">
     <g id="line2d_37">
      <g>
       <use style="stroke:#000000;stroke-width:0.6;" x="211.219834" xlink:href="#mde8bb5b3f6" y="276.812"/>
      </g>
     </g>
    </g>
    <g id="xtick_31">
     <g id="line2d_38">
      <g>
       <use style="stroke:#000000;stroke-width:0.6;" x="217.957025" xlink:href="#mde8bb5b3f6" y="276.812"/>
      </g>
     </g>
    </g>
    <g id="xtick_32">
     <g id="line2d_39">
      <g>
       <use style="stroke:#000000;stroke-width:0.6;" x="223.182796" xlink:href="#mde8bb5b3f6" y="276.812"/>
      </g>
     </g>
    </g>
    <g id="xtick_33">
     <g id="line2d_40">
      <g>
       <use style="stroke:#000000;stroke-width:0.6;" x="227.452562" xlink:href="#mde8bb5b3f6" y="276.812"/>
      </g>
     </g>
    </g>
    <g id="xtick_34">
     <g id="line2d_41">
      <g>
       <use style="stroke:#000000;stroke-width:0.6;" x="231.062597" xlink:href="#mde8bb5b3f6" y="276.812"/>
      </g>
     </g>
    </g>
    <g id="xtick_35">
     <g id="line2d_42">
      <g>
       <use style="stroke:#000000;stroke-width:0.6;" x="234.189752" xlink:href="#mde8bb5b3f6" y="276.812"/>
      </g>
     </g>
    </g>
    <g id="xtick_36">
     <g id="line2d_43">
      <g>
       <use style="stroke:#000000;stroke-width:0.6;" x="236.948098" xlink:href="#mde8bb5b3f6" y="276.812"/>
      </g>
     </g>
    </g>
    <g id="xtick_37">
     <g id="line2d_44">
      <g>
       <use style="stroke:#000000;stroke-width:0.6;" x="255.64825" xlink:href="#mde8bb5b3f6" y="276.812"/>
      </g>
     </g>
    </g>
    <g id="xtick_38">
     <g id="line2d_45">
      <g>
       <use style="stroke:#000000;stroke-width:0.6;" x="265.143787" xlink:href="#mde8bb5b3f6" y="276.812"/>
      </g>
     </g>
    </g>
    <g id="xtick_39">
     <g id="line2d_46">
      <g>
       <use style="stroke:#000000;stroke-width:0.6;" x="271.880978" xlink:href="#mde8bb5b3f6" y="276.812"/>
      </g>
     </g>
    </g>
    <g id="xtick_40">
     <g id="line2d_47">
      <g>
       <use style="stroke:#000000;stroke-width:0.6;" x="277.106749" xlink:href="#mde8bb5b3f6" y="276.812"/>
      </g>
     </g>
    </g>
    <g id="xtick_41">
     <g id="line2d_48">
      <g>
       <use style="stroke:#000000;stroke-width:0.6;" x="281.376514" xlink:href="#mde8bb5b3f6" y="276.812"/>
      </g>
     </g>
    </g>
    <g id="xtick_42">
     <g id="line2d_49">
      <g>
       <use style="stroke:#000000;stroke-width:0.6;" x="284.98655" xlink:href="#mde8bb5b3f6" y="276.812"/>
      </g>
     </g>
    </g>
    <g id="xtick_43">
     <g id="line2d_50">
      <g>
       <use style="stroke:#000000;stroke-width:0.6;" x="288.113705" xlink:href="#mde8bb5b3f6" y="276.812"/>
      </g>
     </g>
    </g>
    <g id="xtick_44">
     <g id="line2d_51">
      <g>
       <use style="stroke:#000000;stroke-width:0.6;" x="290.872051" xlink:href="#mde8bb5b3f6" y="276.812"/>
      </g>
     </g>
    </g>
    <g id="xtick_45">
     <g id="line2d_52">
      <g>
       <use style="stroke:#000000;stroke-width:0.6;" x="309.572203" xlink:href="#mde8bb5b3f6" y="276.812"/>
      </g>
     </g>
    </g>
    <g id="xtick_46">
     <g id="line2d_53">
      <g>
       <use style="stroke:#000000;stroke-width:0.6;" x="319.06774" xlink:href="#mde8bb5b3f6" y="276.812"/>
      </g>
     </g>
    </g>
    <g id="xtick_47">
     <g id="line2d_54">
      <g>
       <use style="stroke:#000000;stroke-width:0.6;" x="325.80493" xlink:href="#mde8bb5b3f6" y="276.812"/>
      </g>
     </g>
    </g>
    <g id="xtick_48">
     <g id="line2d_55">
      <g>
       <use style="stroke:#000000;stroke-width:0.6;" x="331.030701" xlink:href="#mde8bb5b3f6" y="276.812"/>
      </g>
     </g>
    </g>
    <g id="xtick_49">
     <g id="line2d_56">
      <g>
       <use style="stroke:#000000;stroke-width:0.6;" x="335.300467" xlink:href="#mde8bb5b3f6" y="276.812"/>
      </g>
     </g>
    </g>
    <g id="xtick_50">
     <g id="line2d_57">
      <g>
       <use style="stroke:#000000;stroke-width:0.6;" x="338.910503" xlink:href="#mde8bb5b3f6" y="276.812"/>
      </g>
     </g>
    </g>
    <g id="xtick_51">
     <g id="line2d_58">
      <g>
       <use style="stroke:#000000;stroke-width:0.6;" x="342.037658" xlink:href="#mde8bb5b3f6" y="276.812"/>
      </g>
     </g>
    </g>
    <g id="xtick_52">
     <g id="line2d_59">
      <g>
       <use style="stroke:#000000;stroke-width:0.6;" x="344.796004" xlink:href="#mde8bb5b3f6" y="276.812"/>
      </g>
     </g>
    </g>
    <g id="xtick_53">
     <g id="line2d_60">
      <g>
       <use style="stroke:#000000;stroke-width:0.6;" x="363.496156" xlink:href="#mde8bb5b3f6" y="276.812"/>
      </g>
     </g>
    </g>
    <g id="xtick_54">
     <g id="line2d_61">
      <g>
       <use style="stroke:#000000;stroke-width:0.6;" x="372.991693" xlink:href="#mde8bb5b3f6" y="276.812"/>
      </g>
     </g>
    </g>
    <g id="xtick_55">
     <g id="line2d_62">
      <g>
       <use style="stroke:#000000;stroke-width:0.6;" x="379.728883" xlink:href="#mde8bb5b3f6" y="276.812"/>
      </g>
     </g>
    </g>
    <g id="xtick_56">
     <g id="line2d_63">
      <g>
       <use style="stroke:#000000;stroke-width:0.6;" x="384.954654" xlink:href="#mde8bb5b3f6" y="276.812"/>
      </g>
     </g>
    </g>
    <g id="xtick_57">
     <g id="line2d_64">
      <g>
       <use style="stroke:#000000;stroke-width:0.6;" x="389.22442" xlink:href="#mde8bb5b3f6" y="276.812"/>
      </g>
     </g>
    </g>
    <g id="xtick_58">
     <g id="line2d_65">
      <g>
       <use style="stroke:#000000;stroke-width:0.6;" x="392.834455" xlink:href="#mde8bb5b3f6" y="276.812"/>
      </g>
     </g>
    </g>
    <g id="xtick_59">
     <g id="line2d_66">
      <g>
       <use style="stroke:#000000;stroke-width:0.6;" x="395.961611" xlink:href="#mde8bb5b3f6" y="276.812"/>
      </g>
     </g>
    </g>
    <g id="xtick_60">
     <g id="line2d_67">
      <g>
       <use style="stroke:#000000;stroke-width:0.6;" x="398.719957" xlink:href="#mde8bb5b3f6" y="276.812"/>
      </g>
     </g>
    </g>
    <g id="xtick_61">
     <g id="line2d_68">
      <g>
       <use style="stroke:#000000;stroke-width:0.6;" x="417.420109" xlink:href="#mde8bb5b3f6" y="276.812"/>
      </g>
     </g>
    </g>
    <g id="text_8">
     <!-- Size (bytes) -->
     <defs>
      <path d="M 53.515625 70.515625 
L 53.515625 60.890625 
Q 47.90625 63.578125 42.921875 64.890625 
Q 37.9375 66.21875 33.296875 66.21875 
Q 25.25 66.21875 20.875 63.09375 
Q 16.5 59.96875 16.5 54.203125 
Q 16.5 49.359375 19.40625 46.890625 
Q 22.3125 44.4375 30.421875 42.921875 
L 36.375 41.703125 
Q 47.40625 39.59375 52.65625 34.296875 
Q 57.90625 29 57.90625 20.125 
Q 57.90625 9.515625 50.796875 4.046875 
Q 43.703125 -1.421875 29.984375 -1.421875 
Q 24.8125 -1.421875 18.96875 -0.25 
Q 13.140625 0.921875 6.890625 3.21875 
L 6.890625 13.375 
Q 12.890625 10.015625 18.65625 8.296875 
Q 24.421875 6.59375 29.984375 6.59375 
Q 38.421875 6.59375 43.015625 9.90625 
Q 47.609375 13.234375 47.609375 19.390625 
Q 47.609375 24.75 44.3125 27.78125 
Q 41.015625 30.8125 33.5 32.328125 
L 27.484375 33.5 
Q 16.453125 35.6875 11.515625 40.375 
Q 6.59375 45.0625 6.59375 53.421875 
Q 6.59375 63.09375 13.40625 68.65625 
Q 20.21875 74.21875 32.171875 74.21875 
Q 37.3125 74.21875 42.625 73.28125 
Q 47.953125 72.359375 53.515625 70.515625 
z
" id="DejaVuSans-53"/>
      <path d="M 9.421875 54.6875 
L 18.40625 54.6875 
L 18.40625 0 
L 9.421875 0 
z
M 9.421875 75.984375 
L 18.40625 75.984375 
L 18.40625 64.59375 
L 9.421875 64.59375 
z
" id="DejaVuSans-69"/>
      <path d="M 5.515625 54.6875 
L 48.1875 54.6875 
L 48.1875 46.484375 
L 14.40625 7.171875 
L 48.1875 7.171875 
L 48.1875 0 
L 4.296875 0 
L 4.296875 8.203125 
L 38.09375 47.515625 
L 5.515625 47.515625 
z
" id="DejaVuSans-7a"/>
      <path d="M 56.203125 29.59375 
L 56.203125 25.203125 
L 14.890625 25.203125 
Q 15.484375 15.921875 20.484375 11.0625 
Q 25.484375 6.203125 34.421875 6.203125 
Q 39.59375 6.203125 44.453125 7.46875 
Q 49.3125 8.734375 54.109375 11.28125 
L 54.109375 2.78125 
Q 49.265625 0.734375 44.1875 -0.34375 
Q 39.109375 -1.421875 33.890625 -1.421875 
Q 20.796875 -1.421875 13.15625 6.1875 
Q 5.515625 13.8125 5.515625 26.8125 
Q 5.515625 40.234375 12.765625 48.109375 
Q 20.015625 56 32.328125 56 
Q 43.359375 56 49.78125 48.890625 
Q 56.203125 41.796875 56.203125 29.59375 
z
M 47.21875 32.234375 
Q 47.125 39.59375 43.09375 43.984375 
Q 39.0625 48.390625 32.421875 48.390625 
Q 24.90625 48.390625 20.390625 44.140625 
Q 15.875 39.890625 15.1875 32.171875 
z
" id="DejaVuSans-65"/>
      <path id="DejaVuSans-20"/>
      <path d="M 31 75.875 
Q 24.46875 64.65625 21.28125 53.65625 
Q 18.109375 42.671875 18.109375 31.390625 
Q 18.109375 20.125 21.3125 9.0625 
Q 24.515625 -2 31 -13.1875 
L 23.1875 -13.1875 
Q 15.875 -1.703125 12.234375 9.375 
Q 8.59375 20.453125 8.59375 31.390625 
Q 8.59375 42.28125 12.203125 53.3125 
Q 15.828125 64.359375 23.1875 75.875 
z
" id="DejaVuSans-28"/>
      <path d="M 48.6875 27.296875 
Q 48.6875 37.203125 44.609375 42.84375 
Q 40.53125 48.484375 33.40625 48.484375 
Q 26.265625 48.484375 22.1875 42.84375 
Q 18.109375 37.203125 18.109375 27.296875 
Q 18.109375 17.390625 22.1875 11.75 
Q 26.265625 6.109375 33.40625 6.109375 
Q 40.53125 6.109375 44.609375 11.75 
Q 48.6875 17.390625 48.6875 27.296875 
z
M 18.109375 46.390625 
Q 20.953125 51.265625 25.265625 53.625 
Q 29.59375 56 35.59375 56 
Q 45.5625 56 51.78125 48.09375 
Q 58.015625 40.1875 58.015625 27.296875 
Q 58.015625 14.40625 51.78125 6.484375 
Q 45.5625 -1.421875 35.59375 -1.421875 
Q 29.59375 -1.421875 25.265625 0.953125 
Q 20.953125 3.328125 18.109375 8.203125 
L 18.109375 0 
L 9.078125 0 
L 9.078125 75.984375 
L 18.109375 75.984375 
z
" id="DejaVuSans-62"/>
      <path d="M 32.171875 -5.078125 
Q 28.375 -14.84375 24.75 -17.8125 
Q 21.140625 -20.796875 15.09375 -20.796875 
L 7.90625 -20.796875 
L 7.90625 -13.28125 
L 13.1875 -13.28125 
Q 16.890625 -13.28125 18.9375 -11.515625 
Q 21 -9.765625 23.484375 -3.21875 
L 25.09375 0.875 
L 2.984375 54.6875 
L 12.5 54.6875 
L 29.59375 11.921875 
L 46.6875 54.6875 
L 56.203125 54.6875 
z
" id="DejaVuSans-79"/>
      <path d="M 18.3125 70.21875 
L 18.3125 54.6875 
L 36.8125 54.6875 
L 36.8125 47.703125 
L 18.3125 47.703125 
L 18.3125 18.015625 
Q 18.3125 11.328125 20.140625 9.421875 
Q 21.96875 7.515625 27.59375 7.515625 
L 36.8125 7.515625 
L 36.8125 0 
L 27.59375 0 
Q 17.1875 0 13.234375 3.875 
Q 9.28125 7.765625 9.28125 18.015625 
L 9.28125 47.703125 
L 2.6875 47.703125 
L 2.6875 54.6875 
L 9.28125 54.6875 
L 9.28125 70.21875 
z
" id="DejaVuSans-74"/>
      <path d="M 44.28125 53.078125 
L 44.28125 44.578125 
Q 40.484375 46.53125 36.375 47.5 
Q 32.28125 48.484375 27.875 48.484375 
Q 21.1875 48.484375 17.84375 46.4375 
Q 14.5 44.390625 14.5 40.28125 
Q 14.5 37.15625 16.890625 35.375 
Q 19.28125 33.59375 26.515625 31.984375 
L 29.59375 31.296875 
Q 39.15625 29.25 43.1875 25.515625 
Q 47.21875 21.78125 47.21875 15.09375 
Q 47.21875 7.46875 41.1875 3.015625 
Q 35.15625 -1.421875 24.609375 -1.421875 
Q 20.21875 -1.421875 15.453125 -0.5625 
Q 10.6875 0.296875 5.421875 2 
L 5.421875 11.28125 
Q 10.40625 8.6875 15.234375 7.390625 
Q 20.0625 6.109375 24.8125 6.109375 
Q 31.15625 6.109375 34.5625 8.28125 
Q 37.984375 10.453125 37.984375 14.40625 
Q 37.984375 18.0625 35.515625 20.015625 
Q 33.0625 21.96875 24.703125 23.78125 
L 21.578125 24.515625 
Q 13.234375 26.265625 9.515625 29.90625 
Q 5.8125 33.546875 5.8125 39.890625 
Q 5.8125 47.609375 11.28125 51.796875 
Q 16.75 56 26.8125 56 
Q 31.78125 56 36.171875 55.265625 
Q 40.578125 54.546875 44.28125 53.078125 
z
" id="DejaVuSans-73"/>
      <path d="M 8.015625 75.875 
L 15.828125 75.875 
Q 23.140625 64.359375 26.78125 53.3125 
Q 30.421875 42.28125 30.421875 31.390625 
Q 30.421875 20.453125 26.78125 9.375 
Q 23.140625 -1.703125 15.828125 -13.1875 
L 8.015625 -13.1875 
Q 14.5 -2 17.703125 9.0625 
Q 20.90625 20.125 20.90625 31.390625 
Q 20.90625 42.671875 17.703125 53.65625 
Q 14.5 64.65625 8.015625 75.875 
z
" id="DejaVuSans-29"/>
     </defs>
     <g transform="translate(180.911563 317.526062)scale(0.2 -0.2)">
      <use xlink:href="#DejaVuSans-53"/>
      <use x="63.476562" xlink:href="#DejaVuSans-69"/>
      <use x="91.259766" xlink:href="#DejaVuSans-7a"/>
      <use x="143.75" xlink:href="#DejaVuSans-65"/>
      <use x="205.273438" xlink:href="#DejaVuSans-20"/>
      <use x="237.060547" xlink:href="#DejaVuSans-28"/>
      <use x="276.074219" xlink:href="#DejaVuSans-62"/>
      <use x="339.550781" xlink:href="#DejaVuSans-79"/>
      <use x="398.730469" xlink:href="#DejaVuSans-74"/>
      <use x="437.939453" xlink:href="#DejaVuSans-65"/>
      <use x="499.462891" xlink:href="#DejaVuSans-73"/>
      <use x="551.5625" xlink:href="#DejaVuSans-29"/>
     </g>
    </g>
   </g>
   <g id="matplotlib.axis_2">
    <g id="ytick_1">
     <g id="line2d_69">
      <path clip-path="url(#p24f9178942)" d="M 61.410938 238.282166 
L 418.530938 238.282166 
" style="fill:none;stroke:#b0b0b0;stroke-linecap:square;stroke-width:0.8;"/>
     </g>
     <g id="line2d_70">
      <defs>
       <path d="M 0 0 
L -3.5 0 
" id="me8af34276f" style="stroke:#000000;stroke-width:0.8;"/>
      </defs>
      <g>
       <use style="stroke:#000000;stroke-width:0.8;" x="61.410938" xlink:href="#me8af34276f" y="238.282166"/>
      </g>
     </g>
     <g id="text_9">
      <!-- 0.2 -->
      <defs>
       <path d="M 10.6875 12.40625 
L 21 12.40625 
L 21 0 
L 10.6875 0 
z
" id="DejaVuSans-2e"/>
      </defs>
      <g transform="translate(30.55625 243.980994)scale(0.15 -0.15)">
       <use xlink:href="#DejaVuSans-30"/>
       <use x="63.623047" xlink:href="#DejaVuSans-2e"/>
       <use x="95.410156" xlink:href="#DejaVuSans-32"/>
      </g>
     </g>
    </g>
    <g id="ytick_2">
     <g id="line2d_71">
      <path clip-path="url(#p24f9178942)" d="M 61.410938 191.856959 
L 418.530938 191.856959 
" style="fill:none;stroke:#b0b0b0;stroke-linecap:square;stroke-width:0.8;"/>
     </g>
     <g id="line2d_72">
      <g>
       <use style="stroke:#000000;stroke-width:0.8;" x="61.410938" xlink:href="#me8af34276f" y="191.856959"/>
      </g>
     </g>
     <g id="text_10">
      <!-- 0.4 -->
      <g transform="translate(30.55625 197.555787)scale(0.15 -0.15)">
       <use xlink:href="#DejaVuSans-30"/>
       <use x="63.623047" xlink:href="#DejaVuSans-2e"/>
       <use x="95.410156" xlink:href="#DejaVuSans-34"/>
      </g>
     </g>
    </g>
    <g id="ytick_3">
     <g id="line2d_73">
      <path clip-path="url(#p24f9178942)" d="M 61.410938 145.431752 
L 418.530938 145.431752 
" style="fill:none;stroke:#b0b0b0;stroke-linecap:square;stroke-width:0.8;"/>
     </g>
     <g id="line2d_74">
      <g>
       <use style="stroke:#000000;stroke-width:0.8;" x="61.410938" xlink:href="#me8af34276f" y="145.431752"/>
      </g>
     </g>
     <g id="text_11">
      <!-- 0.6 -->
      <g transform="translate(30.55625 151.13058)scale(0.15 -0.15)">
       <use xlink:href="#DejaVuSans-30"/>
       <use x="63.623047" xlink:href="#DejaVuSans-2e"/>
       <use x="95.410156" xlink:href="#DejaVuSans-36"/>
      </g>
     </g>
    </g>
    <g id="ytick_4">
     <g id="line2d_75">
      <path clip-path="url(#p24f9178942)" d="M 61.410938 99.006545 
L 418.530938 99.006545 
" style="fill:none;stroke:#b0b0b0;stroke-linecap:square;stroke-width:0.8;"/>
     </g>
     <g id="line2d_76">
      <g>
       <use style="stroke:#000000;stroke-width:0.8;" x="61.410938" xlink:href="#me8af34276f" y="99.006545"/>
      </g>
     </g>
     <g id="text_12">
      <!-- 0.8 -->
      <defs>
       <path d="M 31.78125 34.625 
Q 24.75 34.625 20.71875 30.859375 
Q 16.703125 27.09375 16.703125 20.515625 
Q 16.703125 13.921875 20.71875 10.15625 
Q 24.75 6.390625 31.78125 6.390625 
Q 38.8125 6.390625 42.859375 10.171875 
Q 46.921875 13.96875 46.921875 20.515625 
Q 46.921875 27.09375 42.890625 30.859375 
Q 38.875 34.625 31.78125 34.625 
z
M 21.921875 38.8125 
Q 15.578125 40.375 12.03125 44.71875 
Q 8.5 49.078125 8.5 55.328125 
Q 8.5 64.0625 14.71875 69.140625 
Q 20.953125 74.21875 31.78125 74.21875 
Q 42.671875 74.21875 48.875 69.140625 
Q 55.078125 64.0625 55.078125 55.328125 
Q 55.078125 49.078125 51.53125 44.71875 
Q 48 40.375 41.703125 38.8125 
Q 48.828125 37.15625 52.796875 32.3125 
Q 56.78125 27.484375 56.78125 20.515625 
Q 56.78125 9.90625 50.3125 4.234375 
Q 43.84375 -1.421875 31.78125 -1.421875 
Q 19.734375 -1.421875 13.25 4.234375 
Q 6.78125 9.90625 6.78125 20.515625 
Q 6.78125 27.484375 10.78125 32.3125 
Q 14.796875 37.15625 21.921875 38.8125 
z
M 18.3125 54.390625 
Q 18.3125 48.734375 21.84375 45.5625 
Q 25.390625 42.390625 31.78125 42.390625 
Q 38.140625 42.390625 41.71875 45.5625 
Q 45.3125 48.734375 45.3125 54.390625 
Q 45.3125 60.0625 41.71875 63.234375 
Q 38.140625 66.40625 31.78125 66.40625 
Q 25.390625 66.40625 21.84375 63.234375 
Q 18.3125 60.0625 18.3125 54.390625 
z
" id="DejaVuSans-38"/>
      </defs>
      <g transform="translate(30.55625 104.705373)scale(0.15 -0.15)">
       <use xlink:href="#DejaVuSans-30"/>
       <use x="63.623047" xlink:href="#DejaVuSans-2e"/>
       <use x="95.410156" xlink:href="#DejaVuSans-38"/>
      </g>
     </g>
    </g>
    <g id="ytick_5">
     <g id="line2d_77">
      <path clip-path="url(#p24f9178942)" d="M 61.410938 52.581338 
L 418.530938 52.581338 
" style="fill:none;stroke:#b0b0b0;stroke-linecap:square;stroke-width:0.8;"/>
     </g>
     <g id="line2d_78">
      <g>
       <use style="stroke:#000000;stroke-width:0.8;" x="61.410938" xlink:href="#me8af34276f" y="52.581338"/>
      </g>
     </g>
     <g id="text_13">
      <!-- 1.0 -->
      <g transform="translate(30.55625 58.280166)scale(0.15 -0.15)">
       <use xlink:href="#DejaVuSans-31"/>
       <use x="63.623047" xlink:href="#DejaVuSans-2e"/>
       <use x="95.410156" xlink:href="#DejaVuSans-30"/>
      </g>
     </g>
    </g>
    <g id="text_14">
     <!-- Time ratio -->
     <defs>
      <path d="M -0.296875 72.90625 
L 61.375 72.90625 
L 61.375 64.59375 
L 35.5 64.59375 
L 35.5 0 
L 25.59375 0 
L 25.59375 64.59375 
L -0.296875 64.59375 
z
" id="DejaVuSans-54"/>
      <path d="M 52 44.1875 
Q 55.375 50.25 60.0625 53.125 
Q 64.75 56 71.09375 56 
Q 79.640625 56 84.28125 50.015625 
Q 88.921875 44.046875 88.921875 33.015625 
L 88.921875 0 
L 79.890625 0 
L 79.890625 32.71875 
Q 79.890625 40.578125 77.09375 44.375 
Q 74.3125 48.1875 68.609375 48.1875 
Q 61.625 48.1875 57.5625 43.546875 
Q 53.515625 38.921875 53.515625 30.90625 
L 53.515625 0 
L 44.484375 0 
L 44.484375 32.71875 
Q 44.484375 40.625 41.703125 44.40625 
Q 38.921875 48.1875 33.109375 48.1875 
Q 26.21875 48.1875 22.15625 43.53125 
Q 18.109375 38.875 18.109375 30.90625 
L 18.109375 0 
L 9.078125 0 
L 9.078125 54.6875 
L 18.109375 54.6875 
L 18.109375 46.1875 
Q 21.1875 51.21875 25.484375 53.609375 
Q 29.78125 56 35.6875 56 
Q 41.65625 56 45.828125 52.96875 
Q 50 49.953125 52 44.1875 
z
" id="DejaVuSans-6d"/>
      <path d="M 41.109375 46.296875 
Q 39.59375 47.171875 37.8125 47.578125 
Q 36.03125 48 33.890625 48 
Q 26.265625 48 22.1875 43.046875 
Q 18.109375 38.09375 18.109375 28.8125 
L 18.109375 0 
L 9.078125 0 
L 9.078125 54.6875 
L 18.109375 54.6875 
L 18.109375 46.1875 
Q 20.953125 51.171875 25.484375 53.578125 
Q 30.03125 56 36.53125 56 
Q 37.453125 56 38.578125 55.875 
Q 39.703125 55.765625 41.0625 55.515625 
z
" id="DejaVuSans-72"/>
      <path d="M 34.28125 27.484375 
Q 23.390625 27.484375 19.1875 25 
Q 14.984375 22.515625 14.984375 16.5 
Q 14.984375 11.71875 18.140625 8.90625 
Q 21.296875 6.109375 26.703125 6.109375 
Q 34.1875 6.109375 38.703125 11.40625 
Q 43.21875 16.703125 43.21875 25.484375 
L 43.21875 27.484375 
z
M 52.203125 31.203125 
L 52.203125 0 
L 43.21875 0 
L 43.21875 8.296875 
Q 40.140625 3.328125 35.546875 0.953125 
Q 30.953125 -1.421875 24.3125 -1.421875 
Q 15.921875 -1.421875 10.953125 3.296875 
Q 6 8.015625 6 15.921875 
Q 6 25.140625 12.171875 29.828125 
Q 18.359375 34.515625 30.609375 34.515625 
L 43.21875 34.515625 
L 43.21875 35.40625 
Q 43.21875 41.609375 39.140625 45 
Q 35.0625 48.390625 27.6875 48.390625 
Q 23 48.390625 18.546875 47.265625 
Q 14.109375 46.140625 10.015625 43.890625 
L 10.015625 52.203125 
Q 14.9375 54.109375 19.578125 55.046875 
Q 24.21875 56 28.609375 56 
Q 40.484375 56 46.34375 49.84375 
Q 52.203125 43.703125 52.203125 31.203125 
z
" id="DejaVuSans-61"/>
      <path d="M 30.609375 48.390625 
Q 23.390625 48.390625 19.1875 42.75 
Q 14.984375 37.109375 14.984375 27.296875 
Q 14.984375 17.484375 19.15625 11.84375 
Q 23.34375 6.203125 30.609375 6.203125 
Q 37.796875 6.203125 41.984375 11.859375 
Q 46.1875 17.53125 46.1875 27.296875 
Q 46.1875 37.015625 41.984375 42.703125 
Q 37.796875 48.390625 30.609375 48.390625 
z
M 30.609375 56 
Q 42.328125 56 49.015625 48.375 
Q 55.71875 40.765625 55.71875 27.296875 
Q 55.71875 13.875 49.015625 6.21875 
Q 42.328125 -1.421875 30.609375 -1.421875 
Q 18.84375 -1.421875 12.171875 6.21875 
Q 5.515625 13.875 5.515625 27.296875 
Q 5.515625 40.765625 12.171875 48.375 
Q 18.84375 56 30.609375 56 
z
" id="DejaVuSans-6f"/>
     </defs>
     <g transform="translate(22.396875 194.765375)rotate(-90)scale(0.2 -0.2)">
      <use xlink:href="#DejaVuSans-54"/>
      <use x="61.037109" xlink:href="#DejaVuSans-69"/>
      <use x="88.820312" xlink:href="#DejaVuSans-6d"/>
      <use x="186.232422" xlink:href="#DejaVuSans-65"/>
      <use x="247.755859" xlink:href="#DejaVuSans-20"/>
      <use x="279.542969" xlink:href="#DejaVuSans-72"/>
      <use x="320.65625" xlink:href="#DejaVuSans-61"/>
      <use x="381.935547" xlink:href="#DejaVuSans-74"/>
      <use x="421.144531" xlink:href="#DejaVuSans-69"/>
      <use x="448.927734" xlink:href="#DejaVuSans-6f"/>
     </g>
    </g>
   </g>
   <g id="LineCollection_1">
    <path clip-path="url(#p24f9178942)" d="M 77.643665 90.192339 
L 77.643665 89.796748 
" style="fill:none;stroke:#1f77b4;stroke-width:1.5;"/>
    <path clip-path="url(#p24f9178942)" d="M 93.876392 101.236306 
L 93.876392 100.88322 
" style="fill:none;stroke:#1f77b4;stroke-width:1.5;"/>
    <path clip-path="url(#p24f9178942)" d="M 110.109119 87.796054 
L 110.109119 86.928171 
" style="fill:none;stroke:#1f77b4;stroke-width:1.5;"/>
    <path clip-path="url(#p24f9178942)" d="M 126.341847 90.483231 
L 126.341847 90.052145 
" style="fill:none;stroke:#1f77b4;stroke-width:1.5;"/>
    <path clip-path="url(#p24f9178942)" d="M 142.574574 133.725285 
L 142.574574 133.345984 
" style="fill:none;stroke:#1f77b4;stroke-width:1.5;"/>
    <path clip-path="url(#p24f9178942)" d="M 158.807301 108.31062 
L 158.807301 107.523983 
" style="fill:none;stroke:#1f77b4;stroke-width:1.5;"/>
    <path clip-path="url(#p24f9178942)" d="M 175.040028 119.711581 
L 175.040028 118.554165 
" style="fill:none;stroke:#1f77b4;stroke-width:1.5;"/>
    <path clip-path="url(#p24f9178942)" d="M 191.272756 119.089886 
L 191.272756 116.940691 
" style="fill:none;stroke:#1f77b4;stroke-width:1.5;"/>
    <path clip-path="url(#p24f9178942)" d="M 207.505483 134.402337 
L 207.505483 133.751081 
" style="fill:none;stroke:#1f77b4;stroke-width:1.5;"/>
    <path clip-path="url(#p24f9178942)" d="M 223.73821 86.524152 
L 223.73821 86.466513 
" style="fill:none;stroke:#1f77b4;stroke-width:1.5;"/>
    <path clip-path="url(#p24f9178942)" d="M 239.970938 65.780393 
L 239.970938 64.989867 
" style="fill:none;stroke:#1f77b4;stroke-width:1.5;"/>
    <path clip-path="url(#p24f9178942)" d="M 256.203665 52.950237 
L 256.203665 52.872644 
" style="fill:none;stroke:#1f77b4;stroke-width:1.5;"/>
    <path clip-path="url(#p24f9178942)" d="M 272.436392 52.719763 
L 272.436392 52.519514 
" style="fill:none;stroke:#1f77b4;stroke-width:1.5;"/>
    <path clip-path="url(#p24f9178942)" d="M 288.669119 51.875984 
L 288.669119 51.808536 
" style="fill:none;stroke:#1f77b4;stroke-width:1.5;"/>
    <path clip-path="url(#p24f9178942)" d="M 304.901847 52.353621 
L 304.901847 52.270709 
" style="fill:none;stroke:#1f77b4;stroke-width:1.5;"/>
    <path clip-path="url(#p24f9178942)" d="M 321.134574 52.772526 
L 321.134574 52.737887 
" style="fill:none;stroke:#1f77b4;stroke-width:1.5;"/>
    <path clip-path="url(#p24f9178942)" d="M 337.367301 52.177804 
L 337.367301 52.111156 
" style="fill:none;stroke:#1f77b4;stroke-width:1.5;"/>
    <path clip-path="url(#p24f9178942)" d="M 353.600028 53.080503 
L 353.600028 53.032187 
" style="fill:none;stroke:#1f77b4;stroke-width:1.5;"/>
    <path clip-path="url(#p24f9178942)" d="M 369.832756 52.276109 
L 369.832756 52.209247 
" style="fill:none;stroke:#1f77b4;stroke-width:1.5;"/>
    <path clip-path="url(#p24f9178942)" d="M 386.065483 53.992997 
L 386.065483 53.984214 
" style="fill:none;stroke:#1f77b4;stroke-width:1.5;"/>
    <path clip-path="url(#p24f9178942)" d="M 402.29821 52.201588 
L 402.29821 52.194993 
" style="fill:none;stroke:#1f77b4;stroke-width:1.5;"/>
   </g>
   <g id="LineCollection_2">
    <path clip-path="url(#p24f9178942)" d="M 77.643665 93.776061 
L 77.643665 93.021959 
" style="fill:none;stroke:#ff7f0e;stroke-width:1.5;"/>
    <path clip-path="url(#p24f9178942)" d="M 93.876392 120.509701 
L 93.876392 120.425095 
" style="fill:none;stroke:#ff7f0e;stroke-width:1.5;"/>
    <path clip-path="url(#p24f9178942)" d="M 110.109119 158.142137 
L 110.109119 158.086514 
" style="fill:none;stroke:#ff7f0e;stroke-width:1.5;"/>
    <path clip-path="url(#p24f9178942)" d="M 126.341847 156.519519 
L 126.341847 156.454096 
" style="fill:none;stroke:#ff7f0e;stroke-width:1.5;"/>
    <path clip-path="url(#p24f9178942)" d="M 142.574574 163.428723 
L 142.574574 163.017052 
" style="fill:none;stroke:#ff7f0e;stroke-width:1.5;"/>
    <path clip-path="url(#p24f9178942)" d="M 158.807301 198.996664 
L 158.807301 198.859768 
" style="fill:none;stroke:#ff7f0e;stroke-width:1.5;"/>
    <path clip-path="url(#p24f9178942)" d="M 175.040028 217.87062 
L 175.040028 217.607337 
" style="fill:none;stroke:#ff7f0e;stroke-width:1.5;"/>
    <path clip-path="url(#p24f9178942)" d="M 191.272756 211.3796 
L 191.272756 211.05853 
" style="fill:none;stroke:#ff7f0e;stroke-width:1.5;"/>
    <path clip-path="url(#p24f9178942)" d="M 207.505483 227.836196 
L 207.505483 227.351688 
" style="fill:none;stroke:#ff7f0e;stroke-width:1.5;"/>
    <path clip-path="url(#p24f9178942)" d="M 223.73821 220.417126 
L 223.73821 220.401953 
" style="fill:none;stroke:#ff7f0e;stroke-width:1.5;"/>
    <path clip-path="url(#p24f9178942)" d="M 239.970938 244.414315 
L 239.970938 244.407959 
" style="fill:none;stroke:#ff7f0e;stroke-width:1.5;"/>
    <path clip-path="url(#p24f9178942)" d="M 256.203665 242.374546 
L 256.203665 242.36995 
" style="fill:none;stroke:#ff7f0e;stroke-width:1.5;"/>
    <path clip-path="url(#p24f9178942)" d="M 272.436392 250.69387 
L 272.436392 250.690655 
" style="fill:none;stroke:#ff7f0e;stroke-width:1.5;"/>
    <path clip-path="url(#p24f9178942)" d="M 288.669119 250.013005 
L 288.669119 250.00919 
" style="fill:none;stroke:#ff7f0e;stroke-width:1.5;"/>
    <path clip-path="url(#p24f9178942)" d="M 304.901847 252.150431 
L 304.901847 252.14431 
" style="fill:none;stroke:#ff7f0e;stroke-width:1.5;"/>
    <path clip-path="url(#p24f9178942)" d="M 321.134574 254.739677 
L 321.134574 254.637367 
" style="fill:none;stroke:#ff7f0e;stroke-width:1.5;"/>
    <path clip-path="url(#p24f9178942)" d="M 337.367301 255.249095 
L 337.367301 255.246372 
" style="fill:none;stroke:#ff7f0e;stroke-width:1.5;"/>
    <path clip-path="url(#p24f9178942)" d="M 353.600028 256.196116 
L 353.600028 256.188028 
" style="fill:none;stroke:#ff7f0e;stroke-width:1.5;"/>
    <path clip-path="url(#p24f9178942)" d="M 369.832756 256.157874 
L 369.832756 256.154254 
" style="fill:none;stroke:#ff7f0e;stroke-width:1.5;"/>
    <path clip-path="url(#p24f9178942)" d="M 386.065483 256.235087 
L 386.065483 256.232154 
" style="fill:none;stroke:#ff7f0e;stroke-width:1.5;"/>
    <path clip-path="url(#p24f9178942)" d="M 402.29821 256.283327 
L 402.29821 256.244044 
" style="fill:none;stroke:#ff7f0e;stroke-width:1.5;"/>
   </g>
   <g id="LineCollection_3">
    <path clip-path="url(#p24f9178942)" d="M 77.643665 29.184315 
L 77.643665 22.796 
" style="fill:none;stroke:#2ca02c;stroke-width:1.5;"/>
    <path clip-path="url(#p24f9178942)" d="M 93.876392 66.899713 
L 93.876392 63.744517 
" style="fill:none;stroke:#2ca02c;stroke-width:1.5;"/>
    <path clip-path="url(#p24f9178942)" d="M 110.109119 107.199319 
L 110.109119 105.656861 
" style="fill:none;stroke:#2ca02c;stroke-width:1.5;"/>
    <path clip-path="url(#p24f9178942)" d="M 126.341847 98.998161 
L 126.341847 98.570056 
" style="fill:none;stroke:#2ca02c;stroke-width:1.5;"/>
    <path clip-path="url(#p24f9178942)" d="M 142.574574 52.59998 
L 142.574574 52.370553 
" style="fill:none;stroke:#2ca02c;stroke-width:1.5;"/>
    <path clip-path="url(#p24f9178942)" d="M 158.807301 178.286619 
L 158.807301 178.155585 
" style="fill:none;stroke:#2ca02c;stroke-width:1.5;"/>
    <path clip-path="url(#p24f9178942)" d="M 175.040028 194.513838 
L 175.040028 194.030138 
" style="fill:none;stroke:#2ca02c;stroke-width:1.5;"/>
    <path clip-path="url(#p24f9178942)" d="M 191.272756 228.734448 
L 191.272756 228.710489 
" style="fill:none;stroke:#2ca02c;stroke-width:1.5;"/>
    <path clip-path="url(#p24f9178942)" d="M 207.505483 235.098995 
L 207.505483 235.079207 
" style="fill:none;stroke:#2ca02c;stroke-width:1.5;"/>
    <path clip-path="url(#p24f9178942)" d="M 223.73821 255.526148 
L 223.73821 255.516853 
" style="fill:none;stroke:#2ca02c;stroke-width:1.5;"/>
    <path clip-path="url(#p24f9178942)" d="M 239.970938 255.836325 
L 239.970938 255.82718 
" style="fill:none;stroke:#2ca02c;stroke-width:1.5;"/>
    <path clip-path="url(#p24f9178942)" d="M 256.203665 260.687082 
L 256.203665 260.673846 
" style="fill:none;stroke:#2ca02c;stroke-width:1.5;"/>
    <path clip-path="url(#p24f9178942)" d="M 272.436392 261.208273 
L 272.436392 261.198982 
" style="fill:none;stroke:#2ca02c;stroke-width:1.5;"/>
    <path clip-path="url(#p24f9178942)" d="M 288.669119 262.724145 
L 288.669119 262.71733 
" style="fill:none;stroke:#2ca02c;stroke-width:1.5;"/>
    <path clip-path="url(#p24f9178942)" d="M 304.901847 257.474427 
L 304.901847 257.466739 
" style="fill:none;stroke:#2ca02c;stroke-width:1.5;"/>
    <path clip-path="url(#p24f9178942)" d="M 321.134574 262.860766 
L 321.134574 262.853384 
" style="fill:none;stroke:#2ca02c;stroke-width:1.5;"/>
    <path clip-path="url(#p24f9178942)" d="M 337.367301 261.52659 
L 337.367301 261.513046 
" style="fill:none;stroke:#2ca02c;stroke-width:1.5;"/>
    <path clip-path="url(#p24f9178942)" d="M 353.600028 264.18445 
L 353.600028 264.177329 
" style="fill:none;stroke:#2ca02c;stroke-width:1.5;"/>
    <path clip-path="url(#p24f9178942)" d="M 369.832756 264.090038 
L 369.832756 264.083629 
" style="fill:none;stroke:#2ca02c;stroke-width:1.5;"/>
    <path clip-path="url(#p24f9178942)" d="M 386.065483 264.716 
L 386.065483 264.689507 
" style="fill:none;stroke:#2ca02c;stroke-width:1.5;"/>
    <path clip-path="url(#p24f9178942)" d="M 402.29821 263.955806 
L 402.29821 263.943875 
" style="fill:none;stroke:#2ca02c;stroke-width:1.5;"/>
   </g>
   <g id="LineCollection_4">
    <path clip-path="url(#p24f9178942)" d="M 77.643665 30.528447 
L 77.643665 30.434775 
" style="fill:none;stroke:#d62728;stroke-width:1.5;"/>
    <path clip-path="url(#p24f9178942)" d="M 93.876392 87.538477 
L 93.876392 86.837326 
" style="fill:none;stroke:#d62728;stroke-width:1.5;"/>
    <path clip-path="url(#p24f9178942)" d="M 110.109119 75.558982 
L 110.109119 75.481514 
" style="fill:none;stroke:#d62728;stroke-width:1.5;"/>
    <path clip-path="url(#p24f9178942)" d="M 126.341847 121.219601 
L 126.341847 121.168516 
" style="fill:none;stroke:#d62728;stroke-width:1.5;"/>
    <path clip-path="url(#p24f9178942)" d="M 142.574574 141.364618 
L 142.574574 141.297675 
" style="fill:none;stroke:#d62728;stroke-width:1.5;"/>
    <path clip-path="url(#p24f9178942)" d="M 158.807301 152.019266 
L 158.807301 151.972803 
" style="fill:none;stroke:#d62728;stroke-width:1.5;"/>
    <path clip-path="url(#p24f9178942)" d="M 175.040028 156.013604 
L 175.040028 155.945468 
" style="fill:none;stroke:#d62728;stroke-width:1.5;"/>
    <path clip-path="url(#p24f9178942)" d="M 191.272756 154.047317 
L 191.272756 153.950612 
" style="fill:none;stroke:#d62728;stroke-width:1.5;"/>
    <path clip-path="url(#p24f9178942)" d="M 207.505483 157.132136 
L 207.505483 157.098853 
" style="fill:none;stroke:#d62728;stroke-width:1.5;"/>
    <path clip-path="url(#p24f9178942)" d="M 223.73821 159.079333 
L 223.73821 159.023765 
" style="fill:none;stroke:#d62728;stroke-width:1.5;"/>
    <path clip-path="url(#p24f9178942)" d="M 239.970938 156.184505 
L 239.970938 156.13309 
" style="fill:none;stroke:#d62728;stroke-width:1.5;"/>
    <path clip-path="url(#p24f9178942)" d="M 256.203665 160.301132 
L 256.203665 160.25123 
" style="fill:none;stroke:#d62728;stroke-width:1.5;"/>
    <path clip-path="url(#p24f9178942)" d="M 272.436392 159.893657 
L 272.436392 159.849757 
" style="fill:none;stroke:#d62728;stroke-width:1.5;"/>
    <path clip-path="url(#p24f9178942)" d="M 288.669119 159.78716 
L 288.669119 159.718775 
" style="fill:none;stroke:#d62728;stroke-width:1.5;"/>
    <path clip-path="url(#p24f9178942)" d="M 304.901847 163.388634 
L 304.901847 163.353529 
" style="fill:none;stroke:#d62728;stroke-width:1.5;"/>
    <path clip-path="url(#p24f9178942)" d="M 321.134574 163.581711 
L 321.134574 163.53667 
" style="fill:none;stroke:#d62728;stroke-width:1.5;"/>
    <path clip-path="url(#p24f9178942)" d="M 337.367301 165.733642 
L 337.367301 165.686874 
" style="fill:none;stroke:#d62728;stroke-width:1.5;"/>
    <path clip-path="url(#p24f9178942)" d="M 353.600028 166.350426 
L 353.600028 166.314198 
" style="fill:none;stroke:#d62728;stroke-width:1.5;"/>
    <path clip-path="url(#p24f9178942)" d="M 369.832756 166.711575 
L 369.832756 166.65093 
" style="fill:none;stroke:#d62728;stroke-width:1.5;"/>
    <path clip-path="url(#p24f9178942)" d="M 386.065483 167.212101 
L 386.065483 167.167602 
" style="fill:none;stroke:#d62728;stroke-width:1.5;"/>
    <path clip-path="url(#p24f9178942)" d="M 402.29821 168.122874 
L 402.29821 168.057114 
" style="fill:none;stroke:#d62728;stroke-width:1.5;"/>
   </g>
   <g id="line2d_79">
    <path clip-path="url(#p24f9178942)" d="M 77.643665 89.994543 
L 93.876392 101.059763 
L 110.109119 87.362112 
L 126.341847 90.267688 
L 142.574574 133.535635 
L 158.807301 107.917301 
L 175.040028 119.132873 
L 191.272756 118.015289 
L 207.505483 134.076709 
L 223.73821 86.495333 
L 239.970938 65.38513 
L 256.203665 52.91144 
L 272.436392 52.619638 
L 288.669119 51.84226 
L 304.901847 52.312165 
L 321.134574 52.755207 
L 337.367301 52.14448 
L 353.600028 53.056345 
L 369.832756 52.242678 
L 386.065483 53.988605 
L 402.29821 52.19829 
" style="fill:none;stroke:#1f77b4;stroke-linecap:square;stroke-width:1.5;"/>
    <defs>
     <path d="M 0 3 
C 0.795609 3 1.55874 2.683901 2.12132 2.12132 
C 2.683901 1.55874 3 0.795609 3 0 
C 3 -0.795609 2.683901 -1.55874 2.12132 -2.12132 
C 1.55874 -2.683901 0.795609 -3 0 -3 
C -0.795609 -3 -1.55874 -2.683901 -2.12132 -2.12132 
C -2.683901 -1.55874 -3 -0.795609 -3 0 
C -3 0.795609 -2.683901 1.55874 -2.12132 2.12132 
C -1.55874 2.683901 -0.795609 3 0 3 
z
" id="macb30ba55f" style="stroke:#1f77b4;"/>
    </defs>
    <g clip-path="url(#p24f9178942)">
     <use style="fill:#1f77b4;stroke:#1f77b4;" x="77.643665" xlink:href="#macb30ba55f" y="89.994543"/>
     <use style="fill:#1f77b4;stroke:#1f77b4;" x="93.876392" xlink:href="#macb30ba55f" y="101.059763"/>
     <use style="fill:#1f77b4;stroke:#1f77b4;" x="110.109119" xlink:href="#macb30ba55f" y="87.362112"/>
     <use style="fill:#1f77b4;stroke:#1f77b4;" x="126.341847" xlink:href="#macb30ba55f" y="90.267688"/>
     <use style="fill:#1f77b4;stroke:#1f77b4;" x="142.574574" xlink:href="#macb30ba55f" y="133.535635"/>
     <use style="fill:#1f77b4;stroke:#1f77b4;" x="158.807301" xlink:href="#macb30ba55f" y="107.917301"/>
     <use style="fill:#1f77b4;stroke:#1f77b4;" x="175.040028" xlink:href="#macb30ba55f" y="119.132873"/>
     <use style="fill:#1f77b4;stroke:#1f77b4;" x="191.272756" xlink:href="#macb30ba55f" y="118.015289"/>
     <use style="fill:#1f77b4;stroke:#1f77b4;" x="207.505483" xlink:href="#macb30ba55f" y="134.076709"/>
     <use style="fill:#1f77b4;stroke:#1f77b4;" x="223.73821" xlink:href="#macb30ba55f" y="86.495333"/>
     <use style="fill:#1f77b4;stroke:#1f77b4;" x="239.970938" xlink:href="#macb30ba55f" y="65.38513"/>
     <use style="fill:#1f77b4;stroke:#1f77b4;" x="256.203665" xlink:href="#macb30ba55f" y="52.91144"/>
     <use style="fill:#1f77b4;stroke:#1f77b4;" x="272.436392" xlink:href="#macb30ba55f" y="52.619638"/>
     <use style="fill:#1f77b4;stroke:#1f77b4;" x="288.669119" xlink:href="#macb30ba55f" y="51.84226"/>
     <use style="fill:#1f77b4;stroke:#1f77b4;" x="304.901847" xlink:href="#macb30ba55f" y="52.312165"/>
     <use style="fill:#1f77b4;stroke:#1f77b4;" x="321.134574" xlink:href="#macb30ba55f" y="52.755207"/>
     <use style="fill:#1f77b4;stroke:#1f77b4;" x="337.367301" xlink:href="#macb30ba55f" y="52.14448"/>
     <use style="fill:#1f77b4;stroke:#1f77b4;" x="353.600028" xlink:href="#macb30ba55f" y="53.056345"/>
     <use style="fill:#1f77b4;stroke:#1f77b4;" x="369.832756" xlink:href="#macb30ba55f" y="52.242678"/>
     <use style="fill:#1f77b4;stroke:#1f77b4;" x="386.065483" xlink:href="#macb30ba55f" y="53.988605"/>
     <use style="fill:#1f77b4;stroke:#1f77b4;" x="402.29821" xlink:href="#macb30ba55f" y="52.19829"/>
    </g>
   </g>
   <g id="line2d_80">
    <path clip-path="url(#p24f9178942)" d="M 77.643665 93.39901 
L 93.876392 120.467398 
L 110.109119 158.114325 
L 126.341847 156.486807 
L 142.574574 163.222887 
L 158.807301 198.928216 
L 175.040028 217.738979 
L 191.272756 211.219065 
L 207.505483 227.593942 
L 223.73821 220.40954 
L 239.970938 244.411137 
L 256.203665 242.372248 
L 272.436392 250.692263 
L 288.669119 250.011097 
L 304.901847 252.14737 
L 321.134574 254.688522 
L 337.367301 255.247733 
L 353.600028 256.192072 
L 369.832756 256.156064 
L 386.065483 256.23362 
L 402.29821 256.263685 
" style="fill:none;stroke:#ff7f0e;stroke-linecap:square;stroke-width:1.5;"/>
    <defs>
     <path d="M 0 3 
C 0.795609 3 1.55874 2.683901 2.12132 2.12132 
C 2.683901 1.55874 3 0.795609 3 0 
C 3 -0.795609 2.683901 -1.55874 2.12132 -2.12132 
C 1.55874 -2.683901 0.795609 -3 0 -3 
C -0.795609 -3 -1.55874 -2.683901 -2.12132 -2.12132 
C -2.683901 -1.55874 -3 -0.795609 -3 0 
C -3 0.795609 -2.683901 1.55874 -2.12132 2.12132 
C -1.55874 2.683901 -0.795609 3 0 3 
z
" id="m535d9201ff" style="stroke:#ff7f0e;"/>
    </defs>
    <g clip-path="url(#p24f9178942)">
     <use style="fill:#ff7f0e;stroke:#ff7f0e;" x="77.643665" xlink:href="#m535d9201ff" y="93.39901"/>
     <use style="fill:#ff7f0e;stroke:#ff7f0e;" x="93.876392" xlink:href="#m535d9201ff" y="120.467398"/>
     <use style="fill:#ff7f0e;stroke:#ff7f0e;" x="110.109119" xlink:href="#m535d9201ff" y="158.114325"/>
     <use style="fill:#ff7f0e;stroke:#ff7f0e;" x="126.341847" xlink:href="#m535d9201ff" y="156.486807"/>
     <use style="fill:#ff7f0e;stroke:#ff7f0e;" x="142.574574" xlink:href="#m535d9201ff" y="163.222887"/>
     <use style="fill:#ff7f0e;stroke:#ff7f0e;" x="158.807301" xlink:href="#m535d9201ff" y="198.928216"/>
     <use style="fill:#ff7f0e;stroke:#ff7f0e;" x="175.040028" xlink:href="#m535d9201ff" y="217.738979"/>
     <use style="fill:#ff7f0e;stroke:#ff7f0e;" x="191.272756" xlink:href="#m535d9201ff" y="211.219065"/>
     <use style="fill:#ff7f0e;stroke:#ff7f0e;" x="207.505483" xlink:href="#m535d9201ff" y="227.593942"/>
     <use style="fill:#ff7f0e;stroke:#ff7f0e;" x="223.73821" xlink:href="#m535d9201ff" y="220.40954"/>
     <use style="fill:#ff7f0e;stroke:#ff7f0e;" x="239.970938" xlink:href="#m535d9201ff" y="244.411137"/>
     <use style="fill:#ff7f0e;stroke:#ff7f0e;" x="256.203665" xlink:href="#m535d9201ff" y="242.372248"/>
     <use style="fill:#ff7f0e;stroke:#ff7f0e;" x="272.436392" xlink:href="#m535d9201ff" y="250.692263"/>
     <use style="fill:#ff7f0e;stroke:#ff7f0e;" x="288.669119" xlink:href="#m535d9201ff" y="250.011097"/>
     <use style="fill:#ff7f0e;stroke:#ff7f0e;" x="304.901847" xlink:href="#m535d9201ff" y="252.14737"/>
     <use style="fill:#ff7f0e;stroke:#ff7f0e;" x="321.134574" xlink:href="#m535d9201ff" y="254.688522"/>
     <use style="fill:#ff7f0e;stroke:#ff7f0e;" x="337.367301" xlink:href="#m535d9201ff" y="255.247733"/>
     <use style="fill:#ff7f0e;stroke:#ff7f0e;" x="353.600028" xlink:href="#m535d9201ff" y="256.192072"/>
     <use style="fill:#ff7f0e;stroke:#ff7f0e;" x="369.832756" xlink:href="#m535d9201ff" y="256.156064"/>
     <use style="fill:#ff7f0e;stroke:#ff7f0e;" x="386.065483" xlink:href="#m535d9201ff" y="256.23362"/>
     <use style="fill:#ff7f0e;stroke:#ff7f0e;" x="402.29821" xlink:href="#m535d9201ff" y="256.263685"/>
    </g>
   </g>
   <g id="line2d_81">
    <path clip-path="url(#p24f9178942)" d="M 77.643665 25.990157 
L 93.876392 65.322115 
L 110.109119 106.42809 
L 126.341847 98.784109 
L 142.574574 52.485266 
L 158.807301 178.221102 
L 175.040028 194.271988 
L 191.272756 228.722468 
L 207.505483 235.089101 
L 223.73821 255.521501 
L 239.970938 255.831752 
L 256.203665 260.680464 
L 272.436392 261.203627 
L 288.669119 262.720738 
L 304.901847 257.470583 
L 321.134574 262.857075 
L 337.367301 261.519818 
L 353.600028 264.180889 
L 369.832756 264.086834 
L 386.065483 264.702753 
L 402.29821 263.949841 
" style="fill:none;stroke:#2ca02c;stroke-linecap:square;stroke-width:1.5;"/>
    <defs>
     <path d="M 0 3 
C 0.795609 3 1.55874 2.683901 2.12132 2.12132 
C 2.683901 1.55874 3 0.795609 3 0 
C 3 -0.795609 2.683901 -1.55874 2.12132 -2.12132 
C 1.55874 -2.683901 0.795609 -3 0 -3 
C -0.795609 -3 -1.55874 -2.683901 -2.12132 -2.12132 
C -2.683901 -1.55874 -3 -0.795609 -3 0 
C -3 0.795609 -2.683901 1.55874 -2.12132 2.12132 
C -1.55874 2.683901 -0.795609 3 0 3 
z
" id="m328e43f725" style="stroke:#2ca02c;"/>
    </defs>
    <g clip-path="url(#p24f9178942)">
     <use style="fill:#2ca02c;stroke:#2ca02c;" x="77.643665" xlink:href="#m328e43f725" y="25.990157"/>
     <use style="fill:#2ca02c;stroke:#2ca02c;" x="93.876392" xlink:href="#m328e43f725" y="65.322115"/>
     <use style="fill:#2ca02c;stroke:#2ca02c;" x="110.109119" xlink:href="#m328e43f725" y="106.42809"/>
     <use style="fill:#2ca02c;stroke:#2ca02c;" x="126.341847" xlink:href="#m328e43f725" y="98.784109"/>
     <use style="fill:#2ca02c;stroke:#2ca02c;" x="142.574574" xlink:href="#m328e43f725" y="52.485266"/>
     <use style="fill:#2ca02c;stroke:#2ca02c;" x="158.807301" xlink:href="#m328e43f725" y="178.221102"/>
     <use style="fill:#2ca02c;stroke:#2ca02c;" x="175.040028" xlink:href="#m328e43f725" y="194.271988"/>
     <use style="fill:#2ca02c;stroke:#2ca02c;" x="191.272756" xlink:href="#m328e43f725" y="228.722468"/>
     <use style="fill:#2ca02c;stroke:#2ca02c;" x="207.505483" xlink:href="#m328e43f725" y="235.089101"/>
     <use style="fill:#2ca02c;stroke:#2ca02c;" x="223.73821" xlink:href="#m328e43f725" y="255.521501"/>
     <use style="fill:#2ca02c;stroke:#2ca02c;" x="239.970938" xlink:href="#m328e43f725" y="255.831752"/>
     <use style="fill:#2ca02c;stroke:#2ca02c;" x="256.203665" xlink:href="#m328e43f725" y="260.680464"/>
     <use style="fill:#2ca02c;stroke:#2ca02c;" x="272.436392" xlink:href="#m328e43f725" y="261.203627"/>
     <use style="fill:#2ca02c;stroke:#2ca02c;" x="288.669119" xlink:href="#m328e43f725" y="262.720738"/>
     <use style="fill:#2ca02c;stroke:#2ca02c;" x="304.901847" xlink:href="#m328e43f725" y="257.470583"/>
     <use style="fill:#2ca02c;stroke:#2ca02c;" x="321.134574" xlink:href="#m328e43f725" y="262.857075"/>
     <use style="fill:#2ca02c;stroke:#2ca02c;" x="337.367301" xlink:href="#m328e43f725" y="261.519818"/>
     <use style="fill:#2ca02c;stroke:#2ca02c;" x="353.600028" xlink:href="#m328e43f725" y="264.180889"/>
     <use style="fill:#2ca02c;stroke:#2ca02c;" x="369.832756" xlink:href="#m328e43f725" y="264.086834"/>
     <use style="fill:#2ca02c;stroke:#2ca02c;" x="386.065483" xlink:href="#m328e43f725" y="264.702753"/>
     <use style="fill:#2ca02c;stroke:#2ca02c;" x="402.29821" xlink:href="#m328e43f725" y="263.949841"/>
    </g>
   </g>
   <g id="line2d_82">
    <path clip-path="url(#p24f9178942)" d="M 77.643665 30.481611 
L 93.876392 87.187902 
L 110.109119 75.520248 
L 126.341847 121.194058 
L 142.574574 141.331147 
L 158.807301 151.996035 
L 175.040028 155.979536 
L 191.272756 153.998965 
L 207.505483 157.115494 
L 223.73821 159.051549 
L 239.970938 156.158797 
L 256.203665 160.276181 
L 272.436392 159.871707 
L 288.669119 159.752968 
L 304.901847 163.371082 
L 321.134574 163.559191 
L 337.367301 165.710258 
L 353.600028 166.332312 
L 369.832756 166.681252 
L 386.065483 167.189852 
L 402.29821 168.089994 
" style="fill:none;stroke:#d62728;stroke-linecap:square;stroke-width:1.5;"/>
    <defs>
     <path d="M 0 3 
C 0.795609 3 1.55874 2.683901 2.12132 2.12132 
C 2.683901 1.55874 3 0.795609 3 0 
C 3 -0.795609 2.683901 -1.55874 2.12132 -2.12132 
C 1.55874 -2.683901 0.795609 -3 0 -3 
C -0.795609 -3 -1.55874 -2.683901 -2.12132 -2.12132 
C -2.683901 -1.55874 -3 -0.795609 -3 0 
C -3 0.795609 -2.683901 1.55874 -2.12132 2.12132 
C -1.55874 2.683901 -0.795609 3 0 3 
z
" id="m33ac5ecf26" style="stroke:#d62728;"/>
    </defs>
    <g clip-path="url(#p24f9178942)">
     <use style="fill:#d62728;stroke:#d62728;" x="77.643665" xlink:href="#m33ac5ecf26" y="30.481611"/>
     <use style="fill:#d62728;stroke:#d62728;" x="93.876392" xlink:href="#m33ac5ecf26" y="87.187902"/>
     <use style="fill:#d62728;stroke:#d62728;" x="110.109119" xlink:href="#m33ac5ecf26" y="75.520248"/>
     <use style="fill:#d62728;stroke:#d62728;" x="126.341847" xlink:href="#m33ac5ecf26" y="121.194058"/>
     <use style="fill:#d62728;stroke:#d62728;" x="142.574574" xlink:href="#m33ac5ecf26" y="141.331147"/>
     <use style="fill:#d62728;stroke:#d62728;" x="158.807301" xlink:href="#m33ac5ecf26" y="151.996035"/>
     <use style="fill:#d62728;stroke:#d62728;" x="175.040028" xlink:href="#m33ac5ecf26" y="155.979536"/>
     <use style="fill:#d62728;stroke:#d62728;" x="191.272756" xlink:href="#m33ac5ecf26" y="153.998965"/>
     <use style="fill:#d62728;stroke:#d62728;" x="207.505483" xlink:href="#m33ac5ecf26" y="157.115494"/>
     <use style="fill:#d62728;stroke:#d62728;" x="223.73821" xlink:href="#m33ac5ecf26" y="159.051549"/>
     <use style="fill:#d62728;stroke:#d62728;" x="239.970938" xlink:href="#m33ac5ecf26" y="156.158797"/>
     <use style="fill:#d62728;stroke:#d62728;" x="256.203665" xlink:href="#m33ac5ecf26" y="160.276181"/>
     <use style="fill:#d62728;stroke:#d62728;" x="272.436392" xlink:href="#m33ac5ecf26" y="159.871707"/>
     <use style="fill:#d62728;stroke:#d62728;" x="288.669119" xlink:href="#m33ac5ecf26" y="159.752968"/>
     <use style="fill:#d62728;stroke:#d62728;" x="304.901847" xlink:href="#m33ac5ecf26" y="163.371082"/>
     <use style="fill:#d62728;stroke:#d62728;" x="321.134574" xlink:href="#m33ac5ecf26" y="163.559191"/>
     <use style="fill:#d62728;stroke:#d62728;" x="337.367301" xlink:href="#m33ac5ecf26" y="165.710258"/>
     <use style="fill:#d62728;stroke:#d62728;" x="353.600028" xlink:href="#m33ac5ecf26" y="166.332312"/>
     <use style="fill:#d62728;stroke:#d62728;" x="369.832756" xlink:href="#m33ac5ecf26" y="166.681252"/>
     <use style="fill:#d62728;stroke:#d62728;" x="386.065483" xlink:href="#m33ac5ecf26" y="167.189852"/>
     <use style="fill:#d62728;stroke:#d62728;" x="402.29821" xlink:href="#m33ac5ecf26" y="168.089994"/>
    </g>
   </g>
   <g id="patch_3">
    <path d="M 61.410938 276.812 
L 61.410938 10.7 
" style="fill:none;stroke:#000000;stroke-linecap:square;stroke-linejoin:miter;stroke-width:0.8;"/>
   </g>
   <g id="patch_4">
    <path d="M 418.530938 276.812 
L 418.530938 10.7 
" style="fill:none;stroke:#000000;stroke-linecap:square;stroke-linejoin:miter;stroke-width:0.8;"/>
   </g>
   <g id="patch_5">
    <path d="M 61.410938 276.812 
L 418.530937 276.812 
" style="fill:none;stroke:#000000;stroke-linecap:square;stroke-linejoin:miter;stroke-width:0.8;"/>
   </g>
   <g id="patch_6">
    <path d="M 61.410938 10.7 
L 418.530937 10.7 
" style="fill:none;stroke:#000000;stroke-linecap:square;stroke-linejoin:miter;stroke-width:0.8;"/>
   </g>
   <g id="legend_1">
    <g id="patch_7">
     <path d="M 69.810938 270.812 
L 157.320938 270.812 
Q 159.720938 270.812 159.720938 268.412 
L 159.720938 199.157 
Q 159.720938 196.757 157.320938 196.757 
L 69.810938 196.757 
Q 67.410938 196.757 67.410938 199.157 
L 67.410938 268.412 
Q 67.410938 270.812 69.810938 270.812 
z
" style="fill:#ffffff;opacity:0.8;stroke:#cccccc;stroke-linejoin:miter;"/>
    </g>
    <g id="LineCollection_5">
     <path d="M 84.210938 212.475125 
L 84.210938 200.475125 
" style="fill:none;stroke:#1f77b4;stroke-width:1.5;"/>
    </g>
    <g id="line2d_83">
     <path d="M 72.210938 206.475125 
L 96.210938 206.475125 
" style="fill:none;stroke:#1f77b4;stroke-linecap:square;stroke-width:1.5;"/>
    </g>
    <g id="line2d_84">
     <g>
      <use style="fill:#1f77b4;stroke:#1f77b4;" x="84.210938" xlink:href="#macb30ba55f" y="206.475125"/>
     </g>
    </g>
    <g id="text_15">
     <!-- x86-64 -->
     <defs>
      <path d="M 54.890625 54.6875 
L 35.109375 28.078125 
L 55.90625 0 
L 45.3125 0 
L 29.390625 21.484375 
L 13.484375 0 
L 2.875 0 
L 24.125 28.609375 
L 4.6875 54.6875 
L 15.28125 54.6875 
L 29.78125 35.203125 
L 44.28125 54.6875 
z
" id="DejaVuSans-78"/>
      <path d="M 4.890625 31.390625 
L 31.203125 31.390625 
L 31.203125 23.390625 
L 4.890625 23.390625 
z
" id="DejaVuSans-2d"/>
     </defs>
     <g transform="translate(105.810938 210.675125)scale(0.12 -0.12)">
      <use xlink:href="#DejaVuSans-78"/>
      <use x="59.179688" xlink:href="#DejaVuSans-38"/>
      <use x="122.802734" xlink:href="#DejaVuSans-36"/>
      <use x="186.425781" xlink:href="#DejaVuSans-2d"/>
      <use x="222.509766" xlink:href="#DejaVuSans-36"/>
      <use x="286.132812" xlink:href="#DejaVuSans-34"/>
     </g>
    </g>
    <g id="LineCollection_6">
     <path d="M 84.210938 230.088875 
L 84.210938 218.088875 
" style="fill:none;stroke:#ff7f0e;stroke-width:1.5;"/>
    </g>
    <g id="line2d_85">
     <path d="M 72.210938 224.088875 
L 96.210938 224.088875 
" style="fill:none;stroke:#ff7f0e;stroke-linecap:square;stroke-width:1.5;"/>
    </g>
    <g id="line2d_86">
     <g>
      <use style="fill:#ff7f0e;stroke:#ff7f0e;" x="84.210938" xlink:href="#m535d9201ff" y="224.088875"/>
     </g>
    </g>
    <g id="text_16">
     <!-- i686 -->
     <g transform="translate(105.810938 228.288875)scale(0.12 -0.12)">
      <use xlink:href="#DejaVuSans-69"/>
      <use x="27.783203" xlink:href="#DejaVuSans-36"/>
      <use x="91.40625" xlink:href="#DejaVuSans-38"/>
      <use x="155.029297" xlink:href="#DejaVuSans-36"/>
     </g>
    </g>
    <g id="LineCollection_7">
     <path d="M 84.210938 247.702625 
L 84.210938 235.702625 
" style="fill:none;stroke:#2ca02c;stroke-width:1.5;"/>
    </g>
    <g id="line2d_87">
     <path d="M 72.210938 241.702625 
L 96.210938 241.702625 
" style="fill:none;stroke:#2ca02c;stroke-linecap:square;stroke-width:1.5;"/>
    </g>
    <g id="line2d_88">
     <g>
      <use style="fill:#2ca02c;stroke:#2ca02c;" x="84.210938" xlink:href="#m328e43f725" y="241.702625"/>
     </g>
    </g>
    <g id="text_17">
     <!-- aarch64 -->
     <defs>
      <path d="M 48.78125 52.59375 
L 48.78125 44.1875 
Q 44.96875 46.296875 41.140625 47.34375 
Q 37.3125 48.390625 33.40625 48.390625 
Q 24.65625 48.390625 19.8125 42.84375 
Q 14.984375 37.3125 14.984375 27.296875 
Q 14.984375 17.28125 19.8125 11.734375 
Q 24.65625 6.203125 33.40625 6.203125 
Q 37.3125 6.203125 41.140625 7.25 
Q 44.96875 8.296875 48.78125 10.40625 
L 48.78125 2.09375 
Q 45.015625 0.34375 40.984375 -0.53125 
Q 36.96875 -1.421875 32.421875 -1.421875 
Q 20.0625 -1.421875 12.78125 6.34375 
Q 5.515625 14.109375 5.515625 27.296875 
Q 5.515625 40.671875 12.859375 48.328125 
Q 20.21875 56 33.015625 56 
Q 37.15625 56 41.109375 55.140625 
Q 45.0625 54.296875 48.78125 52.59375 
z
" id="DejaVuSans-63"/>
      <path d="M 54.890625 33.015625 
L 54.890625 0 
L 45.90625 0 
L 45.90625 32.71875 
Q 45.90625 40.484375 42.875 44.328125 
Q 39.84375 48.1875 33.796875 48.1875 
Q 26.515625 48.1875 22.3125 43.546875 
Q 18.109375 38.921875 18.109375 30.90625 
L 18.109375 0 
L 9.078125 0 
L 9.078125 75.984375 
L 18.109375 75.984375 
L 18.109375 46.1875 
Q 21.34375 51.125 25.703125 53.5625 
Q 30.078125 56 35.796875 56 
Q 45.21875 56 50.046875 50.171875 
Q 54.890625 44.34375 54.890625 33.015625 
z
" id="DejaVuSans-68"/>
     </defs>
     <g transform="translate(105.810938 245.902625)scale(0.12 -0.12)">
      <use xlink:href="#DejaVuSans-61"/>
      <use x="61.279297" xlink:href="#DejaVuSans-61"/>
      <use x="122.558594" xlink:href="#DejaVuSans-72"/>
      <use x="163.640625" xlink:href="#DejaVuSans-63"/>
      <use x="218.621094" xlink:href="#DejaVuSans-68"/>
      <use x="282" xlink:href="#DejaVuSans-36"/>
      <use x="345.623047" xlink:href="#DejaVuSans-34"/>
     </g>
    </g>
    <g id="LineCollection_8">
     <path d="M 84.210938 265.316375 
L 84.210938 253.316375 
" style="fill:none;stroke:#d62728;stroke-width:1.5;"/>
    </g>
    <g id="line2d_89">
     <path d="M 72.210938 259.316375 
L 96.210938 259.316375 
" style="fill:none;stroke:#d62728;stroke-linecap:square;stroke-width:1.5;"/>
    </g>
    <g id="line2d_90">
     <g>
      <use style="fill:#d62728;stroke:#d62728;" x="84.210938" xlink:href="#m33ac5ecf26" y="259.316375"/>
     </g>
    </g>
    <g id="text_18">
     <!-- armv7 -->
     <defs>
      <path d="M 2.984375 54.6875 
L 12.5 54.6875 
L 29.59375 8.796875 
L 46.6875 54.6875 
L 56.203125 54.6875 
L 35.6875 0 
L 23.484375 0 
z
" id="DejaVuSans-76"/>
      <path d="M 8.203125 72.90625 
L 55.078125 72.90625 
L 55.078125 68.703125 
L 28.609375 0 
L 18.3125 0 
L 43.21875 64.59375 
L 8.203125 64.59375 
z
" id="DejaVuSans-37"/>
     </defs>
     <g transform="translate(105.810938 263.516375)scale(0.12 -0.12)">
      <use xlink:href="#DejaVuSans-61"/>
      <use x="61.279297" xlink:href="#DejaVuSans-72"/>
      <use x="102.376953" xlink:href="#DejaVuSans-6d"/>
      <use x="199.789062" xlink:href="#DejaVuSans-76"/>
      <use x="258.96875" xlink:href="#DejaVuSans-37"/>
     </g>
    </g>
   </g>
  </g>
 </g>
 <defs>
  <clipPath id="p24f9178942">
   <rect height="266.112" width="357.12" x="61.410938" y="10.7"/>
  </clipPath>
 </defs>
</svg>
